<svg width="89" height="88" viewBox="0 0 89 88" fill="none" xmlns="http://www.w3.org/2000/svg">
<rect x="32.5" y="72" width="8" height="8" fill="#B8175A"/>
<rect x="24.5" y="64" width="8" height="8" fill="#B8175A"/>
<rect x="16.5" y="56" width="8" height="8" fill="#B8175A"/>
<rect x="8.5" y="48" width="8" height="8" fill="#B8175A"/>
<rect x="0.5" y="32" width="8" height="8" fill="#B8175A"/>
<rect x="0.5" y="24" width="8" height="8" fill="#B8175A"/>
<rect x="0.5" y="16" width="8" height="8" fill="#B8175A"/>
<rect x="8.5" y="8" width="8" height="8" fill="#B8175A"/>
<rect x="16.5" width="8" height="8" fill="#B8175A"/>
<rect x="24.5" width="8" height="8" fill="#B8175A"/>
<rect x="32.5" width="8" height="8" fill="#B8175A"/>
<rect width="8" height="8" transform="matrix(-1 0 0 1 48.5 80)" fill="#B8175A"/>
<rect width="8" height="8" transform="matrix(-1 0 0 1 56.5 72)" fill="#B8175A"/>
<rect width="8" height="8" transform="matrix(-1 0 0 1 64.5 64)" fill="#B8175A"/>
<rect width="8" height="8" transform="matrix(-1 0 0 1 72.5 56)" fill="#B8175A"/>
<rect width="8" height="8" transform="matrix(-1 0 0 1 80.5 48)" fill="#B8175A"/>
<rect width="8" height="8" transform="matrix(-1 0 0 1 88.5 32)" fill="#B8175A"/>
<rect width="8" height="8" transform="matrix(-1 0 0 1 88.5 24)" fill="#B8175A"/>
<rect width="8" height="8" transform="matrix(-1 0 0 1 88.5 16)" fill="#B8175A"/>
<rect width="8" height="8" transform="matrix(-1 0 0 1 80.5 8)" fill="#B8175A"/>
<rect width="8" height="8" transform="matrix(-1 0 0 1 72.5 0)" fill="#B8175A"/>
<rect width="8" height="8" transform="matrix(-1 0 0 1 64.5 0)" fill="#B8175A"/>
<rect width="8" height="8" transform="matrix(-1 0 0 1 56.5 0)" fill="#B8175A"/>
<rect width="8" height="8" transform="matrix(-1 0 0 1 48.5 8)" fill="#B8175A"/>
<rect width="8" height="8" transform="matrix(-1 0 0 1 88.5 40)" fill="#B8175A"/>
<rect x="0.5" y="40" width="8" height="8" fill="#B8175A"/>
<rect x="48.5" y="64" width="8" height="8" fill="#F51F78"/>
<rect x="56.5" y="56" width="8" height="8" fill="#F51F78"/>
<rect x="64.5" y="48" width="8" height="8" fill="#F51F78"/>
<rect x="72.5" y="40" width="8" height="8" fill="#F51F78"/>
<rect x="24.5" y="40" width="8" height="8" fill="#F51F78"/>
<rect x="64.5" y="40" width="8" height="8" fill="#F51F78"/>
<rect x="56.5" y="40" width="8" height="8" fill="#F51F78"/>
<rect x="48.5" y="40" width="8" height="8" fill="#F51F78"/>
<rect x="40.5" y="40" width="8" height="8" fill="#F51F78"/>
<rect x="32.5" y="40" width="8" height="8" fill="#F51F78"/>
<rect x="32.5" y="48" width="8" height="8" fill="#F51F78"/>
<rect x="40.5" y="48" width="8" height="8" fill="#F51F78"/>
<rect x="48.5" y="48" width="8" height="8" fill="#F51F78"/>
<rect x="56.5" y="48" width="8" height="8" fill="#F51F78"/>
<rect x="48.5" y="56" width="8" height="8" fill="#F51F78"/>
<rect x="40.5" y="56" width="8" height="8" fill="#F51F78"/>
<rect x="40.5" y="64" width="8" height="8" fill="#F51F78"/>
<rect x="32.5" y="64" width="8" height="8" fill="#F51F78"/>
<rect x="32.5" y="56" width="8" height="8" fill="#F51F78"/>
<rect x="24.5" y="48" width="8" height="8" fill="#F51F78"/>
<rect x="16.5" y="40" width="8" height="8" fill="#F51F78"/>
<rect x="40.5" y="72" width="8" height="8" fill="#F51F78"/>
<rect x="24.5" y="56" width="8" height="8" fill="#F51F78"/>
<rect x="16.5" y="48" width="8" height="8" fill="#F51F78"/>
<rect x="8.5" y="40" width="8" height="8" fill="#F51F78"/>
</svg>
